<?xml version="1.0" standalone="no"?>
<!DOCTYPE svg PUBLIC "-//W3C//DTD SVG 20010904//EN"
 "http://www.w3.org/TR/2001/REC-SVG-20010904/DTD/svg10.dtd">
<svg version="1.0" xmlns="http://www.w3.org/2000/svg"
 width="71.000000pt" height="71.000000pt" viewBox="0 0 71.000000 71.000000"
 preserveAspectRatio="xMidYMid meet">
<metadata>
Created by potrace 1.14, written by Peter Selinger 2001-2017
</metadata>
<g transform="translate(0.000000,71.000000) scale(0.100000,-0.100000)"
fill="#000000" stroke="none">
<path d="M494 700 c-59 -23 -13 -57 56 -41 21 5 42 6 46 2 4 -3 5 0 3 8 -3 7
-23 19 -44 27 -22 7 -40 13 -40 13 0 0 -10 -4 -21 -9z"/>
<path d="M304 650 c-86 -24 -137 -55 -192 -115 -149 -162 -105 -389 95 -486
24 -11 51 -22 60 -24 10 -2 18 -4 18 -6 0 -1 28 -3 63 -4 34 -1 62 1 62 4 0 4
9 7 21 8 33 3 110 44 151 81 69 62 102 186 73 272 l-12 35 -111 1 c-90 1 -109
-1 -105 -12 3 -8 8 -14 12 -14 11 0 37 -62 37 -85 -1 -11 2 -23 7 -26 14 -10
-51 -87 -89 -105 -108 -52 -239 24 -249 145 -4 43 28 143 58 186 12 16 37 44
56 62 39 35 122 85 105 62 -8 -11 -12 -139 -5 -182 3 -19 21 6 22 31 l2 27 4
-25 c6 -30 23 -43 39 -29 8 7 14 6 19 -1 4 -7 12 -7 26 0 13 8 19 7 19 0 0 -8
6 -8 20 0 12 7 20 7 20 1 0 -5 10 -7 23 -4 20 4 53 5 74 2 22 -4 29 3 27 29 0
16 -6 27 -15 27 -9 0 -14 11 -14 33 0 17 5 32 11 32 19 0 23 48 6 62 -8 7 -16
13 -16 12 -14 -11 -45 -21 -51 -16 -10 10 -75 11 -75 1 0 -13 -28 -11 -32 2
-2 7 -12 7 -30 0 -18 -7 -29 -7 -33 0 -4 5 -11 6 -17 3 -6 -4 -8 1 -4 13 8 24
-2 25 -80 3z m173 -82 c12 -21 11 -58 -3 -58 -7 0 -15 -6 -17 -12 -3 -7 -6 8
-6 35 -1 46 10 60 26 35z m53 -52 c0 -3 -4 -8 -10 -11 -5 -3 -10 -1 -10 4 0 6
5 11 10 11 6 0 10 -2 10 -4z"/>
<path d="M263 401 c-57 -36 -73 -100 -39 -156 34 -57 95 -75 163 -46 77 32 84
157 11 203 -36 22 -98 22 -135 -1z"/>
</g>
</svg>
