<svg width="16" height="17" viewBox="0 0 16 17" fill="none" xmlns="http://www.w3.org/2000/svg">
<path fill-rule="evenodd" clip-rule="evenodd" d="M4.65944 0.956203C5.50484 0.91693 5.77439 0.908203 7.92789 0.908203C10.0814 0.908203 10.3509 0.917658 11.1956 0.956203C12.0403 0.994749 12.6169 1.13075 13.1214 1.32784C13.6497 1.52929 14.1289 1.8442 14.5253 2.25148C14.9289 2.65075 15.2403 3.13366 15.4392 3.66748C15.6352 4.17657 15.7693 4.75839 15.8082 5.60929C15.8471 6.46384 15.8558 6.73584 15.8558 8.9082C15.8558 11.0813 15.8464 11.3533 15.8082 12.2064C15.77 13.0573 15.6352 13.6391 15.4392 14.1482C15.2403 14.6821 14.9284 15.1658 14.5253 15.5657C14.1289 15.9729 13.6497 16.2871 13.1214 16.4878C12.6169 16.6857 12.0403 16.8209 11.1971 16.8602C10.3509 16.8995 10.0814 16.9082 7.92789 16.9082C5.77439 16.9082 5.50484 16.8987 4.65944 16.8602C3.8162 16.8217 3.23962 16.6857 2.73512 16.4878C2.20606 16.2871 1.72671 15.9724 1.33044 15.5657C0.927116 15.1661 0.614998 14.6827 0.415854 14.1489C0.220539 13.6398 0.086486 13.058 0.0475673 12.2071C0.00864859 11.3526 0 11.0806 0 8.9082C0 6.73511 0.00936931 6.46311 0.0475673 5.61075C0.0857653 4.75839 0.220539 4.17657 0.415854 3.66748C0.615293 3.13372 0.927648 2.65025 1.33116 2.25075C1.72687 1.84384 2.20573 1.52889 2.7344 1.32784C3.2389 1.13075 3.81548 0.995476 4.65872 0.956203H4.65944ZM11.1315 2.3962C10.2954 2.35766 10.0446 2.34966 7.92789 2.34966C5.81114 2.34966 5.56033 2.35766 4.7243 2.3962C3.95097 2.43184 3.53151 2.56202 3.25188 2.67184C2.88215 2.81729 2.61764 2.98966 2.34017 3.26966C2.07714 3.52788 1.87472 3.84223 1.74774 4.18966C1.63891 4.47184 1.5099 4.89511 1.47459 5.67548C1.43639 6.51911 1.42846 6.7722 1.42846 8.9082C1.42846 11.0442 1.43639 11.2973 1.47459 12.1409C1.5099 12.9213 1.63891 13.3446 1.74774 13.6267C1.87459 13.9737 2.07711 14.2886 2.34017 14.5467C2.59602 14.8122 2.90809 15.0166 3.25188 15.1446C3.53151 15.2544 3.95097 15.3846 4.7243 15.4202C5.56033 15.4587 5.81042 15.4667 7.92789 15.4667C10.0454 15.4667 10.2954 15.4587 11.1315 15.4202C11.9048 15.3846 12.3243 15.2544 12.6039 15.1446C12.9736 14.9991 13.2381 14.8267 13.5156 14.5467C13.7787 14.2886 13.9812 13.9737 14.108 13.6267C14.2169 13.3446 14.3459 12.9213 14.3812 12.1409C14.4194 11.2973 14.4273 11.0442 14.4273 8.9082C14.4273 6.7722 14.4194 6.51911 14.3812 5.67548C14.3459 4.89511 14.2169 4.47184 14.108 4.18966C13.9639 3.81657 13.7931 3.54966 13.5156 3.26966C13.2597 3.00426 12.9482 2.79999 12.6039 2.67184C12.3243 2.56202 11.9048 2.43184 11.1315 2.3962V2.3962ZM6.91528 11.3744C7.4808 11.6119 8.1105 11.644 8.69684 11.4651C9.28318 11.2862 9.78978 10.9074 10.1301 10.3935C10.4705 9.87953 10.6234 9.26229 10.5629 8.64719C10.5023 8.03209 10.232 7.45727 9.79815 7.02093C9.52156 6.742 9.18713 6.52843 8.81893 6.39558C8.45073 6.26274 8.05793 6.21392 7.66879 6.25265C7.27965 6.29138 6.90386 6.4167 6.56847 6.61957C6.23309 6.82245 5.94645 7.09784 5.7292 7.42591C5.51194 7.75399 5.36948 8.1266 5.31206 8.5169C5.25463 8.90721 5.28369 9.30551 5.39712 9.68312C5.51055 10.0607 5.70554 10.4083 5.96806 10.7007C6.23057 10.9932 6.55407 11.2232 6.91528 11.3744ZM5.04646 6.00057C5.42486 5.61873 5.87407 5.31584 6.36847 5.10919C6.86287 4.90255 7.39276 4.79618 7.92789 4.79618C8.46302 4.79618 8.99291 4.90254 9.4873 5.10919C9.9817 5.31584 10.4309 5.61873 10.8093 6.00057C11.1877 6.3824 11.4879 6.83571 11.6927 7.3346C11.8974 7.83349 12.0028 8.36821 12.0028 8.9082C12.0028 9.4482 11.8974 9.98291 11.6927 10.4818C11.4879 10.9807 11.1877 11.434 10.8093 11.8158C10.0451 12.587 9.00863 13.0202 7.92789 13.0202C6.84714 13.0202 5.81066 12.587 5.04646 11.8158C4.28226 11.0447 3.85294 9.99878 3.85294 8.9082C3.85294 7.81763 4.28226 6.77172 5.04646 6.00057V6.00057ZM12.9066 5.40857C13.0004 5.31931 13.0754 5.21197 13.1274 5.09291C13.1793 4.97385 13.207 4.84549 13.2089 4.71543C13.2108 4.58536 13.1868 4.45624 13.1383 4.3357C13.0898 4.21517 13.0179 4.10567 12.9268 4.01369C12.8356 3.92171 12.7271 3.84912 12.6076 3.80022C12.4882 3.75131 12.3602 3.72709 12.2313 3.72899C12.1024 3.73089 11.9752 3.75886 11.8573 3.81126C11.7393 3.86365 11.6329 3.9394 11.5444 4.03402C11.3724 4.21804 11.2782 4.46247 11.2819 4.71543C11.2855 4.96838 11.3867 5.20993 11.564 5.38882C11.7413 5.5677 11.9807 5.66982 12.2313 5.67351C12.482 5.6772 12.7242 5.58216 12.9066 5.40857V5.40857Z" fill="white"/>
</svg>
