<svg width="72" height="109" viewBox="0 0 72 109" fill="none" xmlns="http://www.w3.org/2000/svg">
<path d="M36.5 3C27.8836 3.0102 19.623 6.44886 13.5303 12.5617C7.43756 18.6745 4.0102 26.9623 4.00003 35.6071C3.98971 42.6717 6.28975 49.5446 10.5473 55.1714C10.5473 55.1714 11.4337 56.3423 11.5784 56.5113L36.5 86L61.4334 56.4965C61.5634 56.3394 62.4527 55.1714 62.4527 55.1714L62.4557 55.1625C66.7111 49.5381 69.0101 42.6685 69 35.6071C68.9898 26.9623 65.5624 18.6745 59.4697 12.5617C53.377 6.44886 45.1164 3.0102 36.5 3ZM36.5 47.4643C34.1626 47.4643 31.8777 46.7689 29.9342 45.466C27.9907 44.1631 26.4759 42.3113 25.5814 40.1447C24.6869 37.9781 24.4529 35.594 24.9089 33.2939C25.3649 30.9939 26.4905 28.8811 28.1433 27.2229C29.7961 25.5646 31.9019 24.4353 34.1944 23.9778C36.4869 23.5203 38.8631 23.7551 41.0226 24.6526C43.1821 25.55 45.0279 27.0698 46.3264 29.0197C47.625 30.9696 48.3182 33.262 48.3182 35.6071C48.3143 38.7506 47.0679 41.7643 44.8524 43.9871C42.6369 46.2099 39.6332 47.4604 36.5 47.4643Z" fill="#FF9619"/>
<path d="M0.500038 35.7507L0.500038 35.7506C0.511139 26.4061 4.25408 17.4467 10.9089 10.8381C17.5638 4.22944 26.5872 0.511182 36 0.5C45.4128 0.511182 54.4362 4.22944 61.0911 10.8381C67.7459 17.4467 71.4889 26.4061 71.5 35.7506V35.7507C71.511 43.3823 69.0007 50.8072 64.3536 56.8866L64.3032 56.9526L64.3002 56.9616L64.1954 57.0975C64.1009 57.2201 63.9735 57.3853 63.8416 57.5559C63.5749 57.9007 63.303 58.2503 63.2363 58.3304C63.2358 58.3309 63.2354 58.3315 63.2349 58.3321L36 90.23L8.77483 58.3443L8.77261 58.3418C8.70435 58.2629 8.43087 57.9117 8.15921 57.5596C8.02683 57.388 7.89939 57.2222 7.80502 57.0991L7.69186 56.9515L7.66053 56.9106L7.65233 56.8999L7.65024 56.8972L7.64972 56.8965L7.64962 56.8963C7.64961 56.8963 7.64961 56.8963 7.64959 56.8963C3.00019 50.8143 0.488769 43.3859 0.500038 35.7507Z" stroke="#FF9619"/>
<circle cx="36.5" cy="102.5" r="6.5" fill="#FF9619"/>
</svg>
